HIERARCHY
ROOT Hips
{
	OFFSET 0.000000 0.000000 0.000000
	CHANNELS 6 Xposition Yposition Zposition Xrotation Yrotation Zrotation
	JOINT LeftUpLeg_virtual
	{
		OFFSET 0.000000 0.000000 0.000000
		CHANNELS 3 Xrotation Yrotation Zrotation
		JOINT LeftUpLeg
		{
			OFFSET 11.394100 -6.187798 -0.413800
			CHANNELS 3 Xrotation Yrotation Zrotation
			JOINT LeftLeg
			{
				OFFSET 0.430247 -32.302673 3.732800
				CHANNELS 3 Xrotation Yrotation Zrotation
				JOINT LeftFoot
				{
					OFFSET -0.430247 -48.264931 -6.423300
					CHANNELS 3 Xrotation Yrotation Zrotation
					JOINT LeftToeBase
					{
						OFFSET 4.230900 -16.068199 23.438400
						CHANNELS 3 Xrotation Yrotation Zrotation
						JOINT LeftToe_End
						{
							OFFSET 4.510700 0.695400 19.974600
							CHANNELS 3 Xrotation Yrotation Zrotation
							End Site
							{
								OFFSET 0 0 0
							}
						}
					}
				}
			}
		}
	}
	JOINT RightUpLeg_virtual
	{
		OFFSET 0.000000 0.000000 0.000000
		CHANNELS 3 Xrotation Yrotation Zrotation
		JOINT RightUpLeg
		{
			OFFSET -11.333700 -6.187798 -0.413800
			CHANNELS 3 Xrotation Yrotation Zrotation
			JOINT RightLeg
			{
				OFFSET -0.430392 -32.302628 3.733000
				CHANNELS 3 Xrotation Yrotation Zrotation
				JOINT RightFoot
				{
					OFFSET 0.430392 -48.264973 -6.423500
					CHANNELS 3 Xrotation Yrotation Zrotation
					JOINT RightToeBase
					{
						OFFSET -4.230900 -16.068199 23.438400
						CHANNELS 3 Xrotation Yrotation Zrotation
						JOINT RightToe_End
						{
							OFFSET -4.510700 0.695400 19.974600
							CHANNELS 3 Xrotation Yrotation Zrotation
							End Site
							{
								OFFSET 0 0 0
							}
						}
					}
				}
			}
		}
	}
	JOINT Spine_virtual
	{
		OFFSET 0.000000 0.000000 0.000000
		CHANNELS 3 Xrotation Yrotation Zrotation
		JOINT Spine
		{
			OFFSET -0.002400 12.777504 0.315300
			CHANNELS 3 Xrotation Yrotation Zrotation
			JOINT Spine1
			{
				OFFSET -0.002067 5.816869 0.032633
				CHANNELS 3 Xrotation Yrotation Zrotation
				JOINT Spine1_split
				{
					OFFSET -0.002067 5.816869 0.032633
					CHANNELS 3 Xrotation Yrotation Zrotation
					JOINT Spine2
					{
						OFFSET -0.002067 5.816869 0.032633
						CHANNELS 3 Xrotation Yrotation Zrotation
						JOINT Neck_virtual
						{
							OFFSET 0.000000 0.000000 0.000000
							CHANNELS 3 Xrotation Yrotation Zrotation
							JOINT Neck
							{
								OFFSET -0.003700 21.199493 -0.826900
								CHANNELS 3 Xrotation Yrotation Zrotation
								JOINT Head
								{
									OFFSET 0.000000 20.442200 4.834800
									CHANNELS 3 Xrotation Yrotation Zrotation
									JOINT HeadTop_End
									{
										OFFSET 0.000000 34.668396 4.968400
										CHANNELS 3 Xrotation Yrotation Zrotation
										End Site
										{
											OFFSET 0 0 0
										}
									}
								}
							}
						}
						JOINT LeftShoulder_virtual
						{
							OFFSET 0.000000 0.000000 0.000000
							CHANNELS 3 Xrotation Yrotation Zrotation
							JOINT LeftShoulder
							{
								OFFSET 3.288150 8.794197 -1.372250
								CHANNELS 3 Xrotation Yrotation Zrotation
								JOINT LeftShoulder_split
								{
									OFFSET 3.288150 8.794197 -1.372250
									CHANNELS 3 Xrotation Yrotation Zrotation
									JOINT LeftArm
									{
										OFFSET 11.953299 -2.279007 -0.146200
										CHANNELS 3 Xrotation Yrotation Zrotation
										JOINT LeftForeArm
										{
											OFFSET 18.448900 0.000000 0.000000
											CHANNELS 3 Xrotation Yrotation Zrotation
											JOINT LeftHand
											{
												OFFSET 29.527798 0.000000 0.000000
												CHANNELS 3 Xrotation Yrotation Zrotation
												End Site
												{
													OFFSET 0 0 0
												}
											}
										}
									}
								}
							}
						}
						JOINT RightShoulder_virtual
						{
							OFFSET 0.000000 0.000000 0.000000
							CHANNELS 3 Xrotation Yrotation Zrotation
							JOINT RightShoulder
							{
								OFFSET -3.249400 8.794197 -1.372250
								CHANNELS 3 Xrotation Yrotation Zrotation
								JOINT RightShoulder_split
								{
									OFFSET -3.249400 8.794197 -1.372250
									CHANNELS 3 Xrotation Yrotation Zrotation
									JOINT RightArm
									{
										OFFSET -11.953299 -2.279007 -0.146200
										CHANNELS 3 Xrotation Yrotation Zrotation
										JOINT RightForeArm
										{
											OFFSET -18.448900 0.000000 0.000000
											CHANNELS 3 Xrotation Yrotation Zrotation
											JOINT RightHand
											{
												OFFSET -29.527802 0.000000 0.000000
												CHANNELS 3 Xrotation Yrotation Zrotation
												End Site
												{
													OFFSET 0 0 0
												}
											}
										}
									}
								}
							}
						}
					}
				}
			}
		}
	}
}
MOTION
Frames: 10
Frame Time: 0.03333333
-1.253263 90.119400 2.666435 0.000000 0.000000 0.000000 -31.801077 -56.842962 -11.384938 -26.443356 4.810176 20.171128 48.222406 -10.664831 0.805855 2.277546 1.057698 -20.709537 -13.547080 -1.288024 1.736409 0.000000 0.000000 0.000000 -26.726132 -53.135846 -7.952022 -23.684485 2.092985 -22.472933 46.278428 2.088892 -7.966890 -11.934572 -5.039030 16.933642 -7.262535 2.785244 -2.445362 0.000000 0.000000 0.000000 -25.156099 -44.922250 -9.507195 13.994956 5.178250 -1.291482 12.273023 2.751900 -7.167968 1.756983 -0.267684 1.651367 0.000000 0.000000 0.000000 10.740708 2.246031 -5.367957 3.780809 -1.118013 -0.364370 -17.425744 31.663370 -12.855294 0.000000 0.000000 0.000000 14.035834 1.649873 -4.958933 1.653950 -12.586855 6.055335 -8.299623 -1.925095 -2.592861 -26.290571 29.039912 -59.693299 170.435295 -52.951824 173.140350 0.000000 0.000000 0.000000 12.312962 1.804705 -4.509618 12.814339 27.490562 -0.966533 -6.270526 -2.965317 2.040552 -55.072160 42.215436 54.025369 170.175051 77.039439 -171.876683 0.000000 0.000000 0.000000 
-2.277549 90.279800 0.069107 0.000000 0.000000 0.000000 -28.179918 -55.552893 -7.983542 -28.631217 4.971930 17.884854 44.593940 -9.264275 0.871411 5.582688 0.038355 -17.403020 -13.329731 -0.958755 0.617272 0.000000 0.000000 0.000000 -24.435881 -51.920363 -5.702145 -24.006276 1.690912 -22.711777 50.036603 1.962219 -8.203074 -12.858658 -5.597863 15.849717 -5.495460 2.529781 -2.170922 0.000000 0.000000 0.000000 -23.121020 -44.354197 -7.363065 14.252503 4.634935 -1.930522 12.732181 2.742760 -7.196587 2.146093 0.542008 1.968753 0.000000 0.000000 0.000000 11.580460 2.050936 -5.520168 4.969743 -0.536309 -0.631403 -16.741439 29.966635 -12.266210 0.000000 0.000000 0.000000 14.747567 1.486793 -5.064515 1.884961 -12.744359 5.798186 -5.745758 -3.699287 -2.395436 -28.198332 27.371595 -57.903216 169.868116 -54.485006 172.469448 0.000000 0.000000 0.000000 12.720176 1.648208 -4.643292 12.515297 26.844225 -0.914862 -6.458587 -1.803459 2.958264 -56.040264 40.799821 54.639809 173.567866 74.822427 -175.087514 0.000000 0.000000 0.000000 
-3.176540 90.931213 -3.688133 0.000000 0.000000 0.000000 -21.609938 -51.566531 -2.131069 -32.638260 3.813481 15.262760 38.479541 -9.038409 1.048761 14.984936 -3.675440 -17.262741 -12.431569 -0.995603 0.855913 0.000000 0.000000 0.000000 -20.035909 -48.357838 -1.366187 -24.654167 0.879574 -22.690281 54.206755 0.678123 -7.918095 -14.217771 -7.357878 12.757511 -4.808945 2.076640 -1.230753 0.000000 0.000000 0.000000 -18.836391 -41.510686 -3.039969 16.576068 4.147699 -2.956272 13.244681 2.913802 -7.257953 2.707858 0.860000 2.627841 0.000000 0.000000 0.000000 12.366497 2.107897 -5.850023 3.929186 -0.318371 -1.369144 -17.771126 26.327801 -9.717344 0.000000 0.000000 0.000000 15.239093 1.617831 -5.307882 2.019491 -13.683327 4.410529 -4.361648 -5.396943 -1.509326 -30.366724 21.744262 -53.822468 169.878853 -55.772210 172.926265 0.000000 0.000000 0.000000 13.305087 1.706497 -5.022740 12.245144 25.718504 -1.596447 -7.142995 -1.400012 4.158039 -57.228577 37.093883 53.484773 177.575670 72.398544 -178.878269 0.000000 0.000000 0.000000 
-3.847304 92.143005 -8.067738 0.000000 0.000000 0.000000 -14.753420 -45.473340 3.597585 -38.088260 1.537493 13.001900 31.421852 -9.254036 1.070794 27.195839 -8.554804 -18.328234 -11.527408 -1.252936 2.503753 0.000000 0.000000 0.000000 -15.047139 -42.920642 3.370839 -25.732587 -0.215723 -22.334092 56.966609 -1.130658 -7.189229 -14.997699 -9.401470 9.068602 -5.681489 1.587488 -0.133988 0.000000 0.000000 0.000000 -13.587295 -36.979355 1.854137 20.784583 3.628073 -4.001904 13.772977 3.166397 -7.223804 2.561090 0.495119 3.580632 0.000000 0.000000 0.000000 13.063129 2.369026 -6.115187 0.947765 -0.372146 -2.553388 -19.844346 21.226971 -6.090237 0.000000 0.000000 0.000000 15.464754 1.939428 -5.539974 2.108273 -15.219232 2.584507 -4.243108 -6.145791 -0.732216 -32.836442 13.556719 -48.401012 170.608440 -56.671903 174.464956 0.000000 0.000000 0.000000 13.966351 1.933850 -5.423764 12.113125 24.616466 -3.267390 -8.249670 -1.685084 5.271462 -58.561939 32.167650 50.009716 -178.974316 71.004010 177.951686 0.000000 0.000000 0.000000 
-4.393240 93.557541 -13.085194 0.000000 0.000000 0.000000 -9.060790 -38.256214 8.005828 -45.100183 -1.418721 11.012270 25.312042 -9.004743 0.899349 38.534141 -12.502631 -18.610645 -10.006860 -1.400873 4.474595 0.000000 0.000000 0.000000 -10.451990 -36.317431 7.350063 -27.232364 -1.322031 -21.812185 57.304782 -2.719145 -6.316134 -14.485971 -10.662335 6.845865 -7.435936 1.269129 0.379620 0.000000 0.000000 0.000000 -8.765177 -31.306862 6.050706 26.609678 3.026770 -4.701724 14.235983 3.380960 -6.967453 2.410086 0.884190 3.734734 0.000000 0.000000 0.000000 13.695868 2.684275 -6.081769 -3.157510 -0.636728 -3.934359 -22.152414 15.499608 -2.425242 0.000000 0.000000 0.000000 15.479051 2.317282 -5.553012 2.198958 -17.094746 1.141048 -4.644282 -5.834631 -0.267118 -36.202601 4.533632 -42.669623 172.005296 -57.830740 176.896353 0.000000 0.000000 0.000000 14.637374 2.176700 -5.640387 12.127346 23.843294 -6.089257 -9.163147 -2.089274 5.758896 -60.737457 26.691087 44.026669 -175.702313 71.997277 174.934491 0.000000 0.000000 0.000000 
-4.987577 94.547050 -17.941021 0.000000 0.000000 0.000000 -5.265176 -30.838786 10.784405 -53.076997 -4.088436 9.018930 21.545475 -7.663903 0.534467 45.905452 -13.703750 -17.658467 -6.997947 -1.294864 5.275361 0.000000 0.000000 0.000000 -6.978096 -29.723392 10.051484 -29.179886 -2.371313 -21.411569 55.375134 -3.722719 -5.510612 -12.655877 -10.874912 7.125183 -8.975313 1.226206 -0.075711 0.000000 0.000000 0.000000 -5.289120 -25.656796 9.036890 33.499380 2.417823 -4.825816 14.558372 3.443064 -6.441522 2.512718 1.207388 3.796055 0.000000 0.000000 0.000000 14.252670 2.916091 -5.657553 -7.344462 -0.949787 -5.333144 -23.966452 10.133826 0.647749 0.000000 0.000000 0.000000 15.407565 2.595233 -5.235856 2.444775 -18.921769 0.895124 -5.055801 -4.878310 -0.082895 -42.096659 -4.028891 -37.994956 174.044422 -60.533972 -179.998926 0.000000 0.000000 0.000000 15.227849 2.354620 -5.532719 12.286141 23.487685 -10.005774 -9.936839 -2.375625 5.412649 -64.469636 21.895336 35.896080 -171.237118 76.128886 170.631485 0.000000 0.000000 0.000000 
-5.827881 94.721771 -22.229031 0.000000 0.000000 0.000000 -3.146706 -23.315921 12.442187 -61.175880 -5.310116 7.045704 20.652716 -4.567064 0.004487 47.520884 -11.474982 -15.320980 -3.007800 -1.025066 4.560861 0.000000 0.000000 0.000000 -4.710186 -23.522178 11.723685 -31.418942 -3.387963 -21.246280 52.388282 -4.241263 -4.892948 -11.040937 -10.305604 9.153288 -9.195715 1.451094 -1.554875 0.000000 0.000000 0.000000 -3.184165 -20.318983 10.926584 40.786311 1.971243 -4.299914 14.649878 3.341676 -5.679525 2.399335 1.622399 3.295955 0.000000 0.000000 0.000000 14.672392 2.998407 -4.899355 -10.553473 -1.175693 -6.258997 -24.746844 5.486957 2.839212 0.000000 0.000000 0.000000 15.371177 2.714264 -4.621801 2.902334 -20.250094 2.067274 -4.820154 -3.761809 -0.142918 -51.448113 -11.811899 -35.718686 176.680601 -65.429565 -176.528684 0.000000 0.000000 0.000000 15.583643 2.368323 -5.081718 12.634493 23.387249 -14.634807 -10.552603 -2.291468 4.325551 -69.877541 18.535130 26.892219 -159.249590 82.807943 158.561530 0.000000 0.000000 0.000000 
-6.879899 93.913666 -25.942249 0.000000 0.000000 0.000000 -2.411902 -16.087419 13.422204 -68.062487 -4.355701 5.169267 22.345213 -0.227851 -0.779707 43.792608 -7.083058 -11.487980 -0.172929 -0.777534 2.792124 0.000000 0.000000 0.000000 -3.729243 -17.630276 12.773577 -33.704344 -4.171145 -21.324180 50.190689 -4.634233 -4.284434 -11.371275 -9.427035 11.499464 -7.489120 1.787761 -3.524769 0.000000 0.000000 0.000000 -2.481254 -14.897792 12.030075 47.792681 1.715762 -3.267520 14.510004 3.102285 -4.763377 2.389314 2.069587 2.592236 0.000000 0.000000 0.000000 14.868545 2.882078 -3.940454 -12.070706 -1.402816 -6.394180 -24.237483 1.649746 4.105650 0.000000 0.000000 0.000000 15.347754 2.620408 -3.783383 3.497478 -20.977500 4.343094 -4.635519 -2.636574 -0.428406 -64.194674 -18.471000 -36.873763 -179.329854 -73.207067 -172.026374 0.000000 0.000000 0.000000 15.808630 2.164949 -4.412950 12.965296 23.282554 -19.013010 -10.532606 -1.699744 3.146897 -76.043856 16.775406 18.694510 -66.862484 87.149539 65.866253 0.000000 0.000000 0.000000 
-7.900959 92.420273 -28.816547 0.000000 0.000000 0.000000 -2.821636 -9.706148 14.034816 -72.906081 -1.634842 3.788606 26.091428 3.980468 -2.096396 36.489930 -2.995128 -6.968658 0.003275 -0.624285 1.133972 0.000000 0.000000 0.000000 -3.888143 -11.962939 13.514135 -35.672008 -4.956553 -21.695911 50.173125 -5.332108 -3.517777 -14.245454 -9.178781 12.768280 -4.360207 2.017354 -5.171216 0.000000 0.000000 0.000000 -2.781621 -9.453208 12.853942 53.897439 1.634079 -1.988782 14.183197 2.796868 -3.791303 2.384320 2.469152 2.337888 0.000000 0.000000 0.000000 14.754614 2.632150 -2.942419 -11.770774 -1.548337 -5.711504 -22.277053 -1.314195 4.673786 0.000000 0.000000 0.000000 15.307176 2.351125 -2.868632 3.972424 -20.979705 6.808548 -4.435446 -1.428769 -0.377064 -78.506447 -23.375795 -41.587492 -166.824037 -83.469338 -159.424716 0.000000 0.000000 0.000000 15.984203 1.867353 -3.649897 13.068268 23.042905 -22.038461 -9.766829 -0.701924 2.152193 -81.411415 16.231644 13.078322 -20.118303 82.809664 18.701026 0.000000 0.000000 0.000000 
-8.744779 90.620026 -30.946102 0.000000 0.000000 0.000000 -3.905631 -4.366657 14.557008 -76.401875 1.977674 3.019994 31.253375 6.995594 -3.970251 28.704037 -0.980199 -3.154720 -1.385779 -0.452795 0.416860 0.000000 0.000000 0.000000 -4.656264 -6.405559 14.093001 -36.917422 -5.980891 -22.206359 52.304018 -6.644408 -2.604566 -18.804723 -10.200633 12.337512 -1.156054 2.070576 -5.857610 0.000000 0.000000 0.000000 -3.846707 -4.106495 13.546327 58.633602 1.681283 -0.717683 13.751494 2.504409 -2.795448 2.002619 2.362180 2.328309 0.000000 0.000000 0.000000 14.417127 2.340962 -2.002950 -9.992763 -1.670291 -4.236163 -18.867143 -3.538626 4.913992 0.000000 0.000000 0.000000 15.328389 2.036800 -1.948952 4.031977 -20.353573 8.301118 -4.209628 -0.302699 -0.228182 -91.191495 -26.298110 -48.625619 -21.284695 -84.094682 -14.099601 0.000000 0.000000 0.000000 16.072231 1.535665 -2.822653 12.652637 22.586462 -22.809063 -8.215835 0.296292 1.876221 -84.892449 16.043387 10.981212 -15.952153 81.662001 14.054750 0.000000 0.000000 0.000000 
